<?xml version="1.0" encoding="UTF-8" standalone="no"?>
<svg xmlns:xlink="http://www.w3.org/1999/xlink" height="37.0px" width="37.0px" xmlns="http://www.w3.org/2000/svg">
  <g transform="matrix(1.0, 0.0, 0.0, 1.0, 1.0, 1.0)">
    <path d="M35.0 17.5 Q35.0 24.75 29.85 29.85 24.7 35.0 17.5 35.0 10.25 35.0 5.1 29.85 0.0 24.75 0.0 17.5 0.0 10.25 5.1 5.1 10.25 0.0 17.5 0.0 24.7 0.0 29.85 5.1 35.0 10.25 35.0 17.5 M32.25 17.5 Q32.25 11.4 27.9 7.05 23.55 2.75 17.5 2.75 11.35 2.75 7.05 7.05 2.75 11.4 2.75 17.5 2.75 23.6 7.05 27.9 11.35 32.25 17.5 32.25 23.55 32.25 27.9 27.9 32.25 23.6 32.25 17.5" fill="url(#gradient0)" fill-rule="evenodd" stroke="none"/>
    <path d="M32.25 17.5 Q32.25 23.6 27.9 27.9 23.55 32.25 17.5 32.25 11.35 32.25 7.05 27.9 2.75 23.6 2.75 17.5 2.75 11.4 7.05 7.05 11.35 2.75 17.5 2.75 23.55 2.75 27.9 7.05 32.25 11.4 32.25 17.5" fill="url(#gradient1)" fill-rule="evenodd" stroke="none"/>
    <path d="M35.0 17.5 Q35.0 24.75 29.85 29.85 24.7 35.0 17.5 35.0 10.25 35.0 5.1 29.85 0.0 24.75 0.0 17.5 0.0 10.25 5.1 5.1 10.25 0.0 17.5 0.0 24.7 0.0 29.85 5.1 35.0 10.25 35.0 17.5 Z" fill="none" stroke="url(#gradient2)" stroke-linecap="round" stroke-linejoin="round" stroke-width="2.0"/>
    <path d="M22.0 9.5 Q22.7 8.8 23.85 8.8 24.8 8.85 25.55 9.6 26.15 10.25 26.15 11.3 26.15 12.4 25.5 13.0 L20.95 17.5 25.35 21.9 Q26.1 22.55 26.1 23.65 26.15 24.65 25.45 25.4 24.75 26.1 23.7 26.1 22.7 26.1 22.0 25.4 L17.45 20.9 12.95 25.4 Q12.2 26.1 11.2 26.05 10.25 26.1 9.5 25.4 8.7 24.65 8.75 23.6 8.75 22.55 9.5 21.85 L13.95 17.5 9.5 13.05 Q8.7 12.4 8.7 11.3 8.7 10.25 9.45 9.6 10.15 8.85 11.15 8.85 12.2 8.8 12.95 9.6 L17.45 14.05 22.0 9.5" fill="url(#gradient3)" fill-rule="evenodd" stroke="none"/>
    <path d="M22.0 9.5 L17.45 14.05 12.95 9.6 Q12.2 8.8 11.15 8.85 10.15 8.85 9.45 9.6 8.7 10.25 8.7 11.3 8.7 12.4 9.5 13.05 L13.95 17.5 9.5 21.85 Q8.75 22.55 8.75 23.6 8.7 24.65 9.5 25.4 10.25 26.1 11.2 26.05 12.2 26.1 12.95 25.4 L17.45 20.9 22.0 25.4 Q22.7 26.1 23.7 26.1 24.75 26.1 25.45 25.4 26.15 24.65 26.1 23.65 26.1 22.55 25.35 21.9 L20.95 17.5 25.5 13.0 Q26.15 12.4 26.15 11.3 26.15 10.25 25.55 9.6 24.8 8.85 23.85 8.8 22.7 8.8 22.0 9.5 Z" fill="none" stroke="url(#gradient4)" stroke-linecap="round" stroke-linejoin="round" stroke-width="3.0"/>
    <path d="M21.95 9.45 Q22.65 8.8 23.75 8.8 24.8 8.85 25.5 9.55 26.15 10.25 26.15 11.25 26.15 12.35 25.5 13.0 L20.95 17.5 25.4 21.85 Q26.1 22.6 26.1 23.6 26.15 24.6 25.4 25.4 L24.9 25.75 Q24.3 26.15 23.65 26.15 22.65 26.15 21.95 25.4 L17.4 20.9 13.0 25.4 Q12.2 26.15 11.15 26.05 10.15 26.15 9.45 25.4 8.7 24.6 8.75 23.6 8.75 22.7 9.3 21.95 L9.45 21.8 13.9 17.5 9.45 13.05 Q8.7 12.35 8.65 11.3 8.7 10.5 9.05 10.0 L9.35 9.55 Q10.1 8.85 11.15 8.85 12.2 8.8 13.0 9.55 L17.4 14.0 21.95 9.45" fill="url(#gradient5)" fill-rule="evenodd" stroke="none"/>
  </g>
  <defs>
    <linearGradient gradientTransform="matrix(0.0, 0.0214, -0.0214, 0.0, 17.5, 17.5)" gradientUnits="userSpaceOnUse" id="gradient0" spreadMethod="pad" x1="-819.2" x2="819.2">
      <stop offset="0.0" stop-color="#58c1e9"/>
      <stop offset="1.0" stop-color="#3da7da"/>
    </linearGradient>
    <linearGradient gradientTransform="matrix(0.0, 0.0228, -0.018, 0.0, 17.5, 23.55)" gradientUnits="userSpaceOnUse" id="gradient1" spreadMethod="pad" x1="-819.2" x2="819.2">
      <stop offset="0.0" stop-color="#2fabdb"/>
      <stop offset="1.0" stop-color="#2c7ebc"/>
    </linearGradient>
    <linearGradient gradientTransform="matrix(0.0, 0.0226, -0.0226, 0.0, 17.5, 17.5)" gradientUnits="userSpaceOnUse" id="gradient2" spreadMethod="pad" x1="-819.2" x2="819.2">
      <stop offset="0.0" stop-color="#327bab"/>
      <stop offset="1.0" stop-color="#2d5e93"/>
    </linearGradient>
    <linearGradient gradientTransform="matrix(0.0, -0.0106, 0.0249, 0.0, 17.2, 17.6)" gradientUnits="userSpaceOnUse" id="gradient3" spreadMethod="pad" x1="-819.2" x2="819.2">
      <stop offset="0.0" stop-color="#d3580e"/>
      <stop offset="1.0" stop-color="#ff9900"/>
    </linearGradient>
    <linearGradient gradientTransform="matrix(1.0E-4, -0.0123, 0.0122, 1.0E-4, 17.45, 17.5)" gradientUnits="userSpaceOnUse" id="gradient4" spreadMethod="pad" x1="-819.2" x2="819.2">
      <stop offset="0.0" stop-color="#146596"/>
      <stop offset="1.0" stop-color="#249ad2"/>
    </linearGradient>
    <linearGradient gradientTransform="matrix(0.0, -0.0106, 0.0249, 0.0, 17.25, 17.55)" gradientUnits="userSpaceOnUse" id="gradient5" spreadMethod="pad" x1="-819.2" x2="819.2">
      <stop offset="0.0" stop-color="#c4f3ff"/>
      <stop offset="1.0" stop-color="#ffffff"/>
    </linearGradient>
  </defs>
</svg>
