<?xml version="1.0" standalone="no"?><!DOCTYPE svg PUBLIC "-//W3C//DTD SVG 1.1//EN" "http://www.w3.org/Graphics/SVG/1.1/DTD/svg11.dtd"><svg t="1697801818341" class="icon" viewBox="0 0 1025 1024" version="1.1" xmlns="http://www.w3.org/2000/svg" p-id="20173" xmlns:xlink="http://www.w3.org/1999/xlink" width="200.1953125" height="200"><path d="M1024.032 768l0 73.152q0 14.848-10.848 25.728t-25.728 10.848l-950.848 0q-14.848 0-25.728-10.848t-10.848-25.728l0-73.152q0-14.848 10.848-25.728t25.728-10.848l950.848 0q14.848 0 25.728 10.848t10.848 25.728zM1024.032 548.576l0 73.152q0 14.848-10.848 25.728t-25.728 10.848l-950.848 0q-14.848 0-25.728-10.848t-10.848-25.728l0-73.152q0-14.848 10.848-25.728t25.728-10.848l950.848 0q14.848 0 25.728 10.848t10.848 25.728zM1024.032 329.152l0 73.152q0 14.848-10.848 25.728t-25.728 10.848l-950.848 0q-14.848 0-25.728-10.848t-10.848-25.728l0-73.152q0-14.848 10.848-25.728t25.728-10.848l950.848 0q14.848 0 25.728 10.848t10.848 25.728zM1024.032 109.728l0 73.152q0 14.848-10.848 25.728t-25.728 10.848l-950.848 0q-14.848 0-25.728-10.848t-10.848-25.728l0-73.152q0-14.848 10.848-25.728t25.728-10.848l950.848 0q14.848 0 25.728 10.848t10.848 25.728z" p-id="20174"></path></svg>