<?xml version="1.0" standalone="no"?><!DOCTYPE svg PUBLIC "-//W3C//DTD SVG 1.1//EN" "http://www.w3.org/Graphics/SVG/1.1/DTD/svg11.dtd"><svg t="1698377544905" class="icon" viewBox="0 0 1024 1024" version="1.1" xmlns="http://www.w3.org/2000/svg" p-id="18622" xmlns:xlink="http://www.w3.org/1999/xlink" width="128" height="128"><path d="M390.3 536.3H145.2v311.6h0.3c-0.2 1.4-0.3 2.7-0.3 4.1 0 32.4 54.9 58.7 122.6 58.7s122.6-26.3 122.6-58.7c0-1.4-0.1-2.7-0.3-4.1h0.3V536.3z" fill="#FFFFFF" p-id="18623"></path><path d="M390.3 536.3h-50v291.6h-0.3c0.2 1.4 0.3 2.7 0.3 4.1 0 32.4-54.9 58.7-122.6 58.7-18.1 0-35.3-1.9-50.7-5.2 22.1 15.3 59 25.2 100.7 25.2 67.7 0 122.6-26.3 122.6-58.7 0-1.4-0.1-2.7-0.3-4.1h0.3V536.3z" fill="#EEEEEE" p-id="18624"></path><path d="M267.8 930.7c-35.7 0-69.5-6.8-95.3-19.1-30.5-14.6-47.3-35.7-47.3-59.5 0-0.8 0-1.6 0.1-2.5 0-0.5-0.1-1.1-0.1-1.6V536.3c0-11 9-20 20-20h245.1c11 0 20 9 20 20v311.6c0 0.5 0 1.1-0.1 1.6 0 0.8 0.1 1.7 0.1 2.5 0 23.8-16.8 44.9-47.3 59.5-25.7 12.4-59.6 19.2-95.2 19.2z m-102.6-86.3c0.4 2.1 0.4 4.2 0.1 6.3-0.1 0.4-0.1 0.9-0.1 1.2 0 7.1 9.6 16.3 24.5 23.5 20.2 9.7 48.7 15.2 78 15.2s57.8-5.5 78-15.2c14.9-7.1 24.5-16.3 24.5-23.5 0-0.4 0-0.8-0.1-1.2-0.3-2.1-0.3-4.3 0.1-6.3V556.3h-205v288.1z" fill="#202D47" p-id="18625"></path><path d="M145.2 531a122.6 58.7 0 1 0 245.2 0 122.6 58.7 0 1 0-245.2 0Z" fill="#FFFFFF" p-id="18626"></path><path d="M267.8 472.3c-41.7 0-78.6 10-100.7 25.2 15.5-3.4 32.6-5.2 50.7-5.2 67.7 0 122.6 26.3 122.6 58.7 0 12.4-8.1 23.9-21.8 33.4 42.4-9.2 71.8-29.7 71.8-53.4-0.1-32.4-55-58.7-122.6-58.7z" fill="#EEEEEE" p-id="18627"></path><path d="M267.8 609.7c-35.7 0-69.5-6.8-95.3-19.1-30.5-14.6-47.3-35.7-47.3-59.5 0-23.8 16.8-44.9 47.3-59.5 25.8-12.3 59.6-19.1 95.3-19.1s69.5 6.8 95.3 19.1c30.5 14.6 47.3 35.7 47.3 59.5 0 23.8-16.8 44.9-47.3 59.5-25.8 12.3-59.7 19.1-95.3 19.1z m0-117.4c-29.4 0-57.8 5.5-78 15.2-14.9 7.1-24.5 16.3-24.5 23.5s9.6 16.3 24.5 23.5c20.2 9.7 48.7 15.2 78 15.2s57.8-5.5 78-15.2c14.9-7.1 24.5-16.3 24.5-23.5s-9.6-16.3-24.5-23.5c-20.2-9.6-48.7-15.2-78-15.2z" fill="#202D47" p-id="18628"></path><path d="M634.6 320.3H389.4v527.6h0.3c-0.2 1.4-0.3 2.7-0.3 4.1 0 32.4 54.9 58.7 122.6 58.7s122.6-26.3 122.6-58.7c0-1.4-0.1-2.7-0.3-4.1h0.3V320.3z" fill="#2DCD54" p-id="18629"></path><path d="M634.6 320.3h-50v507.6h-0.3c0.2 1.4 0.3 2.7 0.3 4.1 0 32.4-54.9 58.7-122.6 58.7-18.1 0-35.3-1.9-50.7-5.2 22.1 15.3 59 25.2 100.7 25.2 67.7 0 122.6-26.3 122.6-58.7 0-1.4-0.1-2.7-0.3-4.1h0.3V320.3z" fill="#31B952" p-id="18630"></path><path d="M512 930.7c-35.7 0-69.5-6.8-95.3-19.1-30.5-14.6-47.3-35.7-47.3-59.5 0-0.8 0-1.6 0.1-2.5 0-0.5-0.1-1.1-0.1-1.6V320.3c0-11 9-20 20-20h245.1c11 0 20 9 20 20v527.6c0 0.5 0 1.1-0.1 1.6 0 0.8 0.1 1.7 0.1 2.5 0 23.8-16.8 44.9-47.3 59.5-25.7 12.4-59.5 19.2-95.2 19.2z m-102.6-86.3c0.4 2.1 0.4 4.2 0.1 6.3-0.1 0.5-0.1 0.9-0.1 1.2 0 7.1 9.6 16.3 24.5 23.5 20.2 9.7 48.7 15.2 78 15.2 29.4 0 57.8-5.5 78-15.2 14.9-7.1 24.5-16.3 24.5-23.5 0-0.4 0-0.8-0.1-1.3-0.3-2.1-0.3-4.3 0.1-6.3v-504h-205v504.1z" fill="#202D47" p-id="18631"></path><path d="M389.4 322a122.6 58.7 0 1 0 245.2 0 122.6 58.7 0 1 0-245.2 0Z" fill="#2DCD54" p-id="18632"></path><path d="M512 263.3c-26.5 0-51 4-71.1 10.9 6.8-0.6 13.9-0.9 21.1-0.9 67.7 0 122.6 26.3 122.6 58.7 0 19.7-20.3 37.2-51.5 47.8C590.7 375 634.6 351 634.6 322c0-32.4-54.9-58.7-122.6-58.7z" fill="#31B952" p-id="18633"></path><path d="M512 400.7c-35.7 0-69.5-6.8-95.3-19.1-30.5-14.6-47.3-35.7-47.3-59.5s16.8-44.9 47.3-59.5c25.8-12.3 59.6-19.1 95.3-19.1s69.5 6.8 95.3 19.1c30.5 14.6 47.3 35.7 47.3 59.5s-16.8 44.9-47.3 59.5c-25.8 12.3-59.6 19.1-95.3 19.1z m0-117.4c-29.4 0-57.8 5.5-78 15.2-14.9 7.1-24.5 16.3-24.5 23.5s9.6 16.3 24.5 23.5c20.2 9.7 48.7 15.2 78 15.2 29.4 0 57.8-5.5 78-15.2 14.9-7.1 24.5-16.3 24.5-23.5s-9.6-16.3-24.5-23.5c-20.2-9.6-48.6-15.2-78-15.2z" fill="#202D47" p-id="18634"></path><path d="M878.8 188.3H633.7v659.6h0.3c-0.2 1.4-0.3 2.7-0.3 4.1 0 32.4 54.9 58.7 122.6 58.7s122.6-26.3 122.6-58.7c0-1.4-0.1-2.7-0.3-4.1h0.3V188.3z" fill="#227CE5" p-id="18635"></path><path d="M878.8 188.3h-50v629.6h-0.3c0.2 1.4 0.3 2.7 0.3 4.1 0 32.4-54.9 58.7-122.6 58.7-24.1 0-46.6-3.3-65.6-9.1 16.8 22.8 62.2 39.1 115.6 39.1 67.7 0 122.6-26.3 122.6-58.7 0-1.4-0.1-2.7-0.3-4.1h0.3V188.3z" fill="#2571CB" p-id="18636"></path><path d="M756.2 930.7c-35.7 0-69.5-6.8-95.3-19.1-30.5-14.6-47.3-35.7-47.3-59.5 0-0.8 0-1.6 0.1-2.5 0-0.5-0.1-1.1-0.1-1.6V188.3c0-11 9-20 20-20h245.1c11 0 20 9 20 20v659.6c0 0.5 0 1.1-0.1 1.6 0 0.8 0.1 1.7 0.1 2.5 0 23.8-16.8 44.9-47.3 59.5-25.6 12.4-59.5 19.2-95.2 19.2z m-102.5-86.3c0.4 2.1 0.4 4.2 0.1 6.3-0.1 0.4-0.1 0.9-0.1 1.2 0 7.1 9.6 16.3 24.5 23.5 20.2 9.7 48.7 15.2 78 15.2 29.4 0 57.8-5.5 78-15.2 14.9-7.1 24.5-16.3 24.5-23.5 0-0.4 0-0.8-0.1-1.2-0.3-2.1-0.3-4.3 0.1-6.3V208.3h-205v636.1z" fill="#202D47" p-id="18637"></path><path d="M633.6 172a122.6 58.7 0 1 0 245.2 0 122.6 58.7 0 1 0-245.2 0Z" fill="#227CE5" p-id="18638"></path><path d="M756.2 113.3c-26.5 0-51 4-71.1 10.9 6.8-0.6 13.9-0.9 21.1-0.9 67.7 0 122.6 26.3 122.6 58.7 0 19.7-20.3 37.2-51.5 47.8C835 225 878.8 201 878.8 172c0-32.4-54.9-58.7-122.6-58.7z" fill="#2571CB" p-id="18639"></path><path d="M756.2 250.7c-35.7 0-69.5-6.8-95.3-19.1-30.5-14.6-47.3-35.7-47.3-59.5s16.8-44.9 47.3-59.5c25.8-12.3 59.6-19.1 95.3-19.1s69.5 6.8 95.3 19.1c30.5 14.6 47.3 35.7 47.3 59.5S882 216.9 851.6 231.5c-25.8 12.4-59.7 19.2-95.4 19.2z m0-117.4c-29.4 0-57.8 5.5-78 15.2-14.9 7.1-24.5 16.3-24.5 23.5s9.6 16.3 24.5 23.5c20.2 9.7 48.7 15.2 78 15.2s57.8-5.5 78-15.2c14.9-7.1 24.5-16.3 24.5-23.5s-9.6-16.3-24.5-23.5c-20.1-9.6-48.6-15.2-78-15.2z" fill="#202D47" p-id="18640"></path></svg>