<?xml version="1.0" standalone="no"?><!DOCTYPE svg PUBLIC "-//W3C//DTD SVG 1.1//EN" "http://www.w3.org/Graphics/SVG/1.1/DTD/svg11.dtd"><svg t="1698377180839" class="icon" viewBox="0 0 1024 1024" version="1.1" xmlns="http://www.w3.org/2000/svg" p-id="9442" xmlns:xlink="http://www.w3.org/1999/xlink" width="128" height="128"><path d="M947.1 294.2c9.4-14.1 4.7-33-9.4-42.4-4.7 0-9.4-4.7-14.1-4.7h-9.4l-183.6 70.6c-9.4 4.7-23.5 14.1-33 18.8-28.3 18.8-51.8 47.1-65.9 75.3-23.7 51.9-47.2 103.7-70.7 150.8-9.4 14.1-18.8 28.3-28.3 37.7-28.2 23.5-61.2 37.7-98.9 33-14.1 0-28.3-4.7-42.4-9.4-14.1-4.7-23.5-9.4-33-14.1-23.5-9.4-42.4-18.8-65.9-18.8-61.2-4.7-113 14.1-155.4 56.5-14.1 14.1-28.2 33-37.7 51.8-9.4 23.5-23.5 51.8-33 75.3-4.7 4.7-4.7 14.1 0 23.5s14.1 18.8 23.5 18.8c9.4 4.7 18.8 0 28.2-4.7 4.7-4.7 9.4-9.4 9.4-14.1 9.4-23.5 18.8-51.8 33-75.3 33-61.2 103.6-89.5 164.8-61.2 14.1 4.7 23.5 9.4 33 14.1 18.8 4.7 42.4 14.1 61.2 14.1 56.5 4.7 113-14.1 155.4-51.8 14.1-14.1 28.2-33 37.7-51.8 23.5-51.8 47.1-103.6 70.6-150.7 14.1-23.5 33-42.4 61.2-56.5 61.2-23.5 127.1-42.4 188.3-70.6l14.4-14.2zM268.8 495.2c93 0 169.6-72.5 176.5-164.2H255.2V140.9C163.5 147.8 91 224.4 91 317.4c0 98.5 79.3 177.8 177.8 177.8z" p-id="9443" fill="#13227a"></path><path d="M282.5 127.2v176.5H459c-5.5-94.4-82.1-171-176.5-176.5zM949.7 344.7c-39.9 18.4-81.3 32.9-121.3 46.7v505.5h131.8V337.7l-4 4-6.5 3zM828.3 129.4v107.8l78.3-30.1h16.8c8.9 0 16.2 2.5 21.1 4.7h5.2l10.1 6.7c0.1 0.1 0.2 0.2 0.4 0.3v-89.4H828.3zM649.5 602l-0.9 2c-10.8 21.6-27.3 44.3-45.2 62.2l-1.7 1.6c-2.9 2.5-5.8 5-8.7 7.4v221.7h131.8V473.1h-15.4c-20 41.1-40.3 85.6-59.9 128.9zM357.5 566.1c2.1 0.8 4.2 1.7 6.2 2.6l0.2 0.1c3.1 1.3 6.2 2.6 9.5 3.9l1.5 0.6 1.5 0.7c8.8 4.4 16.3 8.1 27.7 11.9 11.4 3.8 22.1 7.4 29.7 7.4h2.5l2.5 0.3c17.4 2.2 33.8-1.5 50.5-11.3v-43.4H357.5v27.2zM417.9 729.7c-18.6-0.3-37.1-5.9-53.5-10.8-2.4-0.7-4.7-1.4-6.9-2.1v180.1h131.8V724.7c-23.3 5.1-47.4 6.9-71.4 5zM195.9 741.7l-0.9 1.6c-9.3 15.5-16.6 34.7-23.8 53.3l-0.1 0.1c-1.6 4.1-3.1 8.1-4.6 12-3.5 15.3-13.7 25.6-20 31.8L142 845l-5.8 2.9c-3.9 1.9-8.7 4.3-14.2 6.4v42.6h131.8V693.6c-23.3 6.5-44.5 23.3-57.9 48.1z" p-id="9444" fill="#13227a"></path></svg>