<?xml version="1.0" standalone="no"?><!DOCTYPE svg PUBLIC "-//W3C//DTD SVG 1.1//EN" "http://www.w3.org/Graphics/SVG/1.1/DTD/svg11.dtd"><svg t="1698380498615" class="icon" viewBox="0 0 1024 1024" version="1.1" xmlns="http://www.w3.org/2000/svg" p-id="30943" xmlns:xlink="http://www.w3.org/1999/xlink" width="128" height="128"><path d="M181.92 707.08a75.34 75.34 0 0 0 40.27-11.56c0.42-0.26 0.81-0.52 1.18-0.76a32.69 32.69 0 0 0 4.32-3s0.3-0.24 0.86-0.73a74 74 0 0 0 6.48-5.71c3.25-3 12.77-12.28 50.35-55.6 9.08-10.47 18.83-21.81 26.75-31.14 3.65-4.29 6.53-7.69 8.83-10.48l422.2-266c8.49-2.05 23.79-6.13 53.28-14.24 55-15.11 67.45-19.67 71.53-21.31a76.25 76.25 0 0 0 8-3.38l1.06-0.48a31.11 31.11 0 0 0 4.55-2.56c0.39-0.23 0.8-0.47 1.23-0.74 18.25-11.51 30.45-29.89 34.35-51.75A85.5 85.5 0 0 0 904.93 167c-15.58-24.73-42.66-40.09-70.68-40.09A75.43 75.43 0 0 0 794 138.43c-0.42 0.27-0.82 0.53-1.18 0.78a31.8 31.8 0 0 0-4.31 3l-0.87 0.74a75.74 75.74 0 0 0-6.48 5.71c-3.26 3-12.78 12.3-50.35 55.6-9.1 10.48-18.81 21.83-26.81 31.15-3.65 4.3-6.53 7.7-8.83 10.49L273 511.89c-8.49 2.06-23.79 6.13-53.28 14.24-55 15.11-67.43 19.67-71.52 21.32a76.4 76.4 0 0 0-8 3.38l-1 0.47a31.54 31.54 0 0 0-4.58 2.58c-0.38 0.22-0.79 0.46-1.21 0.73-18.26 11.5-30.46 29.88-34.36 51.75A85.61 85.61 0 0 0 111.24 667c15.58 24.72 42.66 40.08 70.68 40.08z m519.42-427.37L716 301.5 327.3 546.39l-14.91-21.63z m101.82-108a42.9 42.9 0 0 1 4.62-4.08c0.75-0.65 1.16-1 1.16-1l0.07 0.11c0.65-0.47 1.28-1 2-1.4a43.41 43.41 0 0 1 23.28-6.65c16.63 0 33.53 9.05 43.71 25.2 15.13 24 9.67 54.65-12.19 68.43-0.69 0.43-1.41 0.78-2.11 1.17l0.07 0.11-1.38 0.62a44.56 44.56 0 0 1-5.68 2.41c-15 6.2-101.94 29.59-121.92 34.62l-16-23.83c11.79-14.3 72.1-84.64 84.37-95.67zM150.4 581.58c0.69-0.43 1.41-0.78 2.11-1.17l-0.07-0.11 1.39-0.62a43.84 43.84 0 0 1 5.67-2.41c16.84-7 124.3-35.57 126-35.57l8.88-5.6 14.91 21.63-9.8 6.17c-0.15 0.86-72.88 86.07-86.49 98.31a42 42 0 0 1-4.62 4.08c-0.75 0.65-1.15 1-1.15 1l-0.07-0.11c-0.66 0.46-1.28 1-2 1.39a43.42 43.42 0 0 1-23.28 6.66c-16.63 0-33.53-9.05-43.7-25.2-15.1-24.03-9.64-54.68 12.22-68.45z" fill="#13227a" p-id="30944"></path><path d="M912.82 357c-15.58-24.73-42.66-40.08-70.68-40.08a75.42 75.42 0 0 0-40.27 11.55l-1.2 0.78a32.84 32.84 0 0 0-4.27 3l-0.89 0.76a74.49 74.49 0 0 0-6.49 5.72c-3.26 3-12.8 12.31-50.34 55.59a4298.74 4298.74 0 0 0-26.75 31.14c-3.65 4.29-6.54 7.69-8.83 10.48L294 693.69a10.51 10.51 0 0 0-2.06 1.1 10.16 10.16 0 0 0-0.85 0.73l-10.18 6.42c-8.49 2-23.79 6.13-53.29 14.24-55 15.11-67.44 19.67-71.52 21.31a76.09 76.09 0 0 0-8 3.38c-0.74 0.32-1.12 0.5-1.12 0.5a32.08 32.08 0 0 0-4.47 2.52c-0.39 0.23-0.81 0.48-1.25 0.76-36.66 23.12-46.61 73.54-22.13 112.35 15.58 24.73 42.66 40.09 70.67 40.09a75.44 75.44 0 0 0 40.28-11.56l1.19-0.78a32.84 32.84 0 0 0 4.27-3l0.9-0.76a74.44 74.44 0 0 0 6.48-5.71c3.26-3 12.78-12.3 50.35-55.6 9.08-10.46 18.83-21.81 26.75-31.13 3.65-4.3 6.53-7.69 8.83-10.49l422.2-266c8.49-2.05 23.79-6.13 53.27-14.23 55-15.12 67.45-19.68 71.54-21.32a76.09 76.09 0 0 0 7.95-3.38l1.07-0.48a32.46 32.46 0 0 0 4.54-2.55c0.38-0.23 0.79-0.47 1.21-0.74 36.72-23.09 46.66-73.51 22.19-112.36zM334.28 737l-15-21.57 394-248.23 14.64 21.8zM220.9 852.25a42.9 42.9 0 0 1-4.62 4.08l-1.16 1-0.07-0.11c-0.65 0.47-1.28 1-2 1.4a43.42 43.42 0 0 1-23.29 6.65c-16.62 0-33.52-9-43.7-25.2-15.13-24-9.67-54.65 12.19-68.43 0.69-0.43 1.4-0.78 2.11-1.17l-0.07-0.11 1.38-0.62a43.38 43.38 0 0 1 5.68-2.41c16.84-7 124.3-35.57 126-35.57l7.86-5 15 21.57-8.89 5.6c-0.08 0.87-72.81 86.07-86.42 98.32z m652.75-409.83c-0.68 0.43-1.4 0.78-2.1 1.17l0.07 0.11-1.39 0.62a43.84 43.84 0 0 1-5.67 2.41c-14 5.79-90.57 26.52-117 33.36l-17.77-26.39c16.93-20.15 69.85-81.65 81.26-91.91a43 43 0 0 1 4.62-4.08c0.75-0.65 1.15-1 1.15-1l0.07 0.11c0.66-0.46 1.28-1 2-1.39a43.39 43.39 0 0 1 23.28-6.66c16.63 0 33.53 9 43.7 25.2 15.13 24.03 9.65 54.68-12.22 68.45z" fill="#13227a" p-id="30945"></path></svg>