<?xml version="1.0" standalone="no"?><!DOCTYPE svg PUBLIC "-//W3C//DTD SVG 1.1//EN" "http://www.w3.org/Graphics/SVG/1.1/DTD/svg11.dtd"><svg t="1698508457036" class="icon" viewBox="0 0 1024 1024" version="1.1" xmlns="http://www.w3.org/2000/svg" p-id="10533" xmlns:xlink="http://www.w3.org/1999/xlink" width="128" height="128"><path d="M995.784946 600.430108s-65.032258 65.72043-71.913978 72.258064c-6.537634 6.537634-29.247312 5.849462-29.247312 5.849462s-59.526882-6.537634-68.129032-15.139785c-8.602151-8.602151-14.451613-70.88172-14.451613-70.88172s-1.72043-17.204301 6.88172-25.806452l72.258065-72.258064s8.258065-9.290323-3.784947-9.290323c-38.193548 0-115.612903 0.688172-153.118279 38.193549l-7.569893 7.569892c-44.387097 44.731183-47.139785 111.827957-11.354838 160l-219.526882 198.881721c-17.548387 17.548387-40.602151 65.032258 0 105.290322 40.602151 40.602151 88.086022 17.548387 105.290323 0 0 0 198.537634-219.526882 198.193548-219.182796l0.344086-0.344086c48.172043 36.129032 114.924731 33.376344 159.655914-11.354838l7.569892-7.569893c36.473118-36.473118 37.505376-113.204301 37.505377-152.086021 0.688172-12.043011-8.602151-4.129032-8.602151-4.129032zM554.322581 973.075269c-20.301075 0-36.817204-16.516129-36.817205-36.817204 0-20.301075 16.516129-36.817204 36.817205-36.817205 20.301075 0 36.817204 16.516129 36.817204 36.817205 0 20.301075-16.516129 36.817204-36.817204 36.817204z" fill="#E13430" p-id="10534"></path><path d="M433.892473 562.236559c62.27957 0 121.11828-6.193548 174.107527-17.204301 33.376344-92.55914 121.806452-158.623656 225.72043-158.623656 3.784946 0 7.225806 0.344086 11.010753 0.688172 0.344086-2.752688 1.032258-5.16129 1.032258-7.569892V239.139785c0 101.16129-184.086022 183.053763-411.526882 183.053763S22.365591 340.301075 22.365591 239.139785v140.043011c0 101.16129 184.086022 183.053763 411.526882 183.053763z" fill="#231815" p-id="10535"></path><path d="M433.892473 371.956989c227.44086 0 411.526882-81.892473 411.526882-183.053763 0-101.16129-184.086022-183.397849-411.526882-183.39785S22.365591 87.741935 22.365591 188.903226s184.086022 183.053763 411.526882 183.053763zM433.892473 752.860215c22.709677 0 45.075269-1.032258 67.096774-2.752688l93.591398-93.591398 0.688172-0.688172c-1.032258-9.634409-1.72043-19.268817-1.72043-29.247312 0-9.634409 0.688172-19.268817 1.72043-28.55914-49.548387 9.290323-103.913978 14.451613-161.376344 14.451613-227.44086 0.344086-411.526882-81.892473-411.526882-183.053763v140.043011c0 101.16129 184.086022 183.397849 411.526882 183.397849z" fill="#231815" p-id="10536"></path><path d="M22.365591 619.698925v140.04301c0 96.344086 166.88172 175.139785 378.83871 182.365592-5.16129-46.107527 2.752688-95.311828 25.806452-118.365592l21.333333-20.989247c-4.817204 0-9.634409 0.344086-14.451613 0.344086-227.44086 0-411.526882-82.236559-411.526882-183.397849z" fill="#231815" p-id="10537"></path></svg>