<?xml version="1.0" standalone="no"?><!DOCTYPE svg PUBLIC "-//W3C//DTD SVG 1.1//EN" "http://www.w3.org/Graphics/SVG/1.1/DTD/svg11.dtd"><svg t="1698591396204" class="icon" viewBox="0 0 1378 1024" version="1.1" xmlns="http://www.w3.org/2000/svg" p-id="4080" xmlns:xlink="http://www.w3.org/1999/xlink" width="172.25" height="128"><path d="M1339.136788 39.384615v945.23077H275.752172V39.384615h1063.384616m0-39.384615H275.752172a39.384615 39.384615 0 0 0-39.384615 39.384615v945.23077a39.384615 39.384615 0 0 0 39.384615 39.384615h1063.384616a39.384615 39.384615 0 0 0 39.384615-39.384615V39.384615a39.384615 39.384615 0 0 0-39.384615-39.384615z" fill="#4D4D4D" p-id="4081"></path><path d="M275.752172 393.846154h1063.384616v39.384615H275.752172zM275.752172 590.769231h1063.384616v39.384615H275.752172zM275.752172 787.692308h1063.384616v39.384615H275.752172zM275.752172 196.923077h1063.384616v39.384615H275.752172z" fill="#B3B3B3" p-id="4082"></path><path d="M551.44448 39.384615v945.23077h-39.384615V39.384615zM827.136788 39.384615v945.23077h-39.384616V39.384615zM1102.829095 39.384615v945.23077h-39.384615V39.384615z" fill="#B3B3B3" p-id="4083"></path><path d="M256.059865 216.615385m19.692307 0l1063.384616 0q19.692308 0 19.692307 19.692307l0 157.538462q0 19.692308-19.692307 19.692308l-1063.384616 0q-19.692308 0-19.692307-19.692308l0-157.538462q0-19.692308 19.692307-19.692307Z" fill="#05AFC8" p-id="4084"></path><path d="M1339.136788 236.307692v157.538462H275.752172V236.307692h1063.384616m0-39.384615H275.752172a39.384615 39.384615 0 0 0-39.384615 39.384615v157.538462a39.384615 39.384615 0 0 0 39.384615 39.384615h1063.384616a39.384615 39.384615 0 0 0 39.384615-39.384615V236.307692a39.384615 39.384615 0 0 0-39.384615-39.384615z" fill="#4D4D4D" p-id="4085"></path><path d="M177.290634 413.538462a18.510769 18.510769 0 0 1-13.784616-5.907693l-157.538461-157.538461a18.904615 18.904615 0 0 1 0-27.569231 18.904615 18.904615 0 0 1 27.569231 0l157.538461 157.538461a18.904615 18.904615 0 0 1 0 27.569231 18.510769 18.510769 0 0 1-13.784615 5.907693z" fill="#F13353" p-id="4086"></path><path d="M19.752172 413.538462a18.510769 18.510769 0 0 1-13.784615-5.907693 18.904615 18.904615 0 0 1 0-27.569231l157.538461-157.538461a19.298462 19.298462 0 0 1 27.569231 27.569231l-157.538461 157.538461a18.510769 18.510769 0 0 1-13.784616 5.907693z" fill="#F13353" p-id="4087"></path></svg>