<?xml version="1.0" standalone="no"?><!DOCTYPE svg PUBLIC "-//W3C//DTD SVG 1.1//EN" "http://www.w3.org/Graphics/SVG/1.1/DTD/svg11.dtd"><svg t="1698509301842" class="icon" viewBox="0 0 1024 1024" version="1.1" xmlns="http://www.w3.org/2000/svg" p-id="21308" xmlns:xlink="http://www.w3.org/1999/xlink" width="128" height="128"><path d="M763.4 276h-75.5v-61c0-39.1-31.9-71-71-71h-344c-39.1 0-71 31.9-71 71v465.4c0 39.1 31.9 71 71 71h75.5v61c0 39.1 31.9 71 71 71h344c39.1 0 71-31.8 71-70.9V347c0-39.1-31.9-71-71-71z m-415 71v332.4h-74.5V216h342v60H419.4c-39.1 0-71 31.9-71 71z m414 464.4h-342V348h342v463.4z" p-id="21309"></path><path d="M702 475H481c-19.9 0-36-16.1-36-36s16.1-36 36-36h221c19.9 0 36 16.1 36 36s-16.1 36-36 36zM702 616H481c-19.9 0-36-16.1-36-36s16.1-36 36-36h221c19.9 0 36 16.1 36 36s-16.1 36-36 36z" p-id="21310"></path><path d="M632 756H481c-19.9 0-36-16.1-36-36s16.1-36 36-36h151c19.9 0 36 16.1 36 36s-16.1 36-36 36z" p-id="21311"></path></svg>