<?xml version="1.0" standalone="no"?><!DOCTYPE svg PUBLIC "-//W3C//DTD SVG 1.1//EN" "http://www.w3.org/Graphics/SVG/1.1/DTD/svg11.dtd"><svg t="1698508758046" class="icon" viewBox="0 0 1024 1024" version="1.1" xmlns="http://www.w3.org/2000/svg" p-id="14654" xmlns:xlink="http://www.w3.org/1999/xlink" width="128" height="128"><path d="M96 96h832v737.856L896 896l-80.32 32H96z" fill="#FFFFFF" p-id="14655" data-spm-anchor-id="a313x.search_index.0.i9.590d3a81TstoZW" class="selected"></path><path d="M616.224 896l0.192 0.384L728.96 896v32H96V96h832v488.16a223.776 223.776 0 0 0-32-18.592V128H128v768h488.224zM704 565.568c-11.2 5.312-21.92 11.52-32 18.56V128h32v437.568z" fill="#ACB4C0" p-id="14656"></path><path d="M288 96h224v832H288V96z m32 32v768h160V128h-160z" fill="#5D6D7E" p-id="14657"></path><path d="M676.032 736H736v32h-128v-128h32v96h3.2a160.064 160.064 0 0 1 316.8 32 160 160 0 0 1-160 160v-32a128 128 0 1 0-123.968-160z" fill="#27A2DF" p-id="14658"></path></svg>