<?xml version="1.0" standalone="no"?><!DOCTYPE svg PUBLIC "-//W3C//DTD SVG 1.1//EN" "http://www.w3.org/Graphics/SVG/1.1/DTD/svg11.dtd"><svg t="1698591481870" class="icon" viewBox="0 0 1378 1024" version="1.1" xmlns="http://www.w3.org/2000/svg" p-id="10701" xmlns:xlink="http://www.w3.org/1999/xlink" width="172.25" height="128"><path d="M1339.076923 39.384615v945.23077H275.692308V39.384615h1063.384615m0-39.384615H275.692308a39.384615 39.384615 0 0 0-39.384616 39.384615v945.23077a39.384615 39.384615 0 0 0 39.384616 39.384615h1063.384615a39.384615 39.384615 0 0 0 39.384615-39.384615V39.384615a39.384615 39.384615 0 0 0-39.384615-39.384615z" fill="#4D4D4D" p-id="10702"></path><path d="M275.692308 393.846154h1063.384615v39.384615H275.692308zM275.692308 590.769231h1063.384615v39.384615H275.692308zM275.692308 787.692308h1063.384615v39.384615H275.692308zM275.692308 196.923077h1063.384615v39.384615H275.692308z" fill="#B3B3B3" p-id="10703"></path><path d="M551.384615 39.384615v945.23077h-39.384615V39.384615zM827.076923 39.384615v945.23077h-39.384615V39.384615zM1102.769231 39.384615v945.23077h-39.384616V39.384615z" fill="#B3B3B3" p-id="10704"></path><path d="M256 216.615385m19.692308 0l1063.384615 0q19.692308 0 19.692308 19.692307l0 157.538462q0 19.692308-19.692308 19.692308l-1063.384615 0q-19.692308 0-19.692308-19.692308l0-157.538462q0-19.692308 19.692308-19.692307Z" fill="#05AFC8" p-id="10705"></path><path d="M1339.076923 236.307692v157.538462H275.692308V236.307692h1063.384615m0-39.384615H275.692308a39.384615 39.384615 0 0 0-39.384616 39.384615v157.538462a39.384615 39.384615 0 0 0 39.384616 39.384615h1063.384615a39.384615 39.384615 0 0 0 39.384615-39.384615V236.307692a39.384615 39.384615 0 0 0-39.384615-39.384615z" fill="#4D4D4D" p-id="10706"></path><path d="M196.923077 315.076923L78.769231 196.923077v236.307692l118.153846-118.153846z" fill="#05AFC8" p-id="10707"></path><path d="M78.769231 275.692308m0 1.575384l0 75.618462q0 1.575385-1.575385 1.575384l-75.618461 0q-1.575385 0-1.575385-1.575384l0-75.618462q0-1.575385 1.575385-1.575384l75.618461 0q1.575385 0 1.575385 1.575384Z" fill="#05AFC8" p-id="10708"></path></svg>