<?xml version="1.0" standalone="no"?><!DOCTYPE svg PUBLIC "-//W3C//DTD SVG 1.1//EN" "http://www.w3.org/Graphics/SVG/1.1/DTD/svg11.dtd"><svg t="1698377574624" class="icon" viewBox="0 0 1024 1024" version="1.1" xmlns="http://www.w3.org/2000/svg" p-id="19866" xmlns:xlink="http://www.w3.org/1999/xlink" width="128" height="128"><path d="M505.374118 512a150.588235 150.588235 0 1 0 150.588235 150.588235 150.588235 150.588235 0 0 0-150.588235-150.588235z m436.705882-180.705882a45.176471 45.176471 0 1 0 45.176471 45.17647 45.176471 45.176471 0 0 0-45.176471-45.17647z m-376.470588 0a60.235294 60.235294 0 1 0-60.235294-60.235294 60.235294 60.235294 0 0 0 60.235294 60.235294z m0 572.235294a60.235294 60.235294 0 1 0 60.235294 60.235294 60.235294 60.235294 0 0 0-60.235294-60.235294z m316.235294-180.705883a45.176471 45.176471 0 1 0 45.17647 45.176471 45.176471 45.176471 0 0 0-45.17647-45.176471z m-135.529412-60.235294a60.235294 60.235294 0 1 0 60.235294 60.235294 60.235294 60.235294 0 0 0-60.235294-60.235294z m-572.235294 60.235294a60.235294 60.235294 0 1 0 60.235294 60.235295 60.235294 60.235294 0 0 0-60.235294-60.235295z m-30.117647-451.764705a90.352941 90.352941 0 1 0 90.352941 90.352941 90.352941 90.352941 0 0 0-90.352941-90.352941z m361.411765-180.705883a90.352941 90.352941 0 1 0-90.352942 90.352941 90.352941 90.352941 0 0 0 90.352942-90.352941z" fill="#53A7F8" p-id="19867"></path><path d="M617.411765 30.117647A75.294118 75.294118 0 1 0 692.705882 105.411765 75.294118 75.294118 0 0 0 617.411765 30.117647zM391.529412 271.058824a120.470588 120.470588 0 1 0 120.470588 120.470588 120.470588 120.470588 0 0 0-120.470588-120.470588z m496.941176 180.705882a105.411765 105.411765 0 1 0 105.411765 105.411765 105.411765 105.411765 0 0 0-105.411765-105.411765zM361.411765 783.058824a90.352941 90.352941 0 1 0 90.352941 90.352941 90.352941 90.352941 0 0 0-90.352941-90.352941z" fill="#FFC107" p-id="19868"></path><path d="M768 120.470588A105.411765 105.411765 0 1 0 873.411765 225.882353 105.411765 105.411765 0 0 0 768 120.470588z m-60.235294 662.588236a75.294118 75.294118 0 1 0 75.294118 75.294117 75.294118 75.294118 0 0 0-75.294118-75.294117zM240.941176 90.352941a60.235294 60.235294 0 1 0 60.235295 60.235294 60.235294 60.235294 0 0 0-60.235295-60.235294z m451.764706 316.235294a75.294118 75.294118 0 1 0-75.294117 75.294118 75.294118 75.294118 0 0 0 75.294117-75.294118zM120.470588 481.882353a90.352941 90.352941 0 1 0 90.352941 90.352941 90.352941 90.352941 0 0 0-90.352941-90.352941z" fill="#7D8390" p-id="19869"></path></svg>