<?xml version="1.0" standalone="no"?><!DOCTYPE svg PUBLIC "-//W3C//DTD SVG 1.1//EN" "http://www.w3.org/Graphics/SVG/1.1/DTD/svg11.dtd"><svg t="1697801025722" class="icon" viewBox="0 0 1072 1024" version="1.1" xmlns="http://www.w3.org/2000/svg" p-id="1457" xmlns:xlink="http://www.w3.org/1999/xlink" width="209.375" height="200"><path d="M275.96928 227.584A317.76 317.76 0 0 0 188.41728 512a488.512 488.512 0 0 1 132.8-239.232A488 488 0 0 1 560.44928 139.904a318.08 318.08 0 0 0-284.48 87.68z" fill="#000000" fill-opacity=".85" p-id="1458"></path><path d="M1029.95328 816.96l-119.68-119.68a116.032 116.032 0 0 0-91.264-33.536 418.112 418.112 0 0 0-48.64-532.8 417.92 417.92 0 0 0-591.04 0 417.92 417.92 0 1 0 532.736 639.68c-2.56 32.64 8.64 66.368 33.536 91.2l119.68 119.68a116.8 116.8 0 0 0 164.544 0 116.48 116.48 0 0 0 0.128-164.544z m-308.16-143.616a349.12 349.12 0 1 1-493.632-493.76 349.12 349.12 0 0 1 493.632 493.76z" fill="#000000" fill-opacity=".85" p-id="1459"></path></svg>