<?xml version="1.0" standalone="no"?><!DOCTYPE svg PUBLIC "-//W3C//DTD SVG 1.1//EN" "http://www.w3.org/Graphics/SVG/1.1/DTD/svg11.dtd"><svg t="1698377521140" class="icon" viewBox="0 0 1024 1024" version="1.1" xmlns="http://www.w3.org/2000/svg" p-id="17346" xmlns:xlink="http://www.w3.org/1999/xlink" width="128" height="128"><path d="M417.536 17.698133c12.680533 60.757333 51.712 126.3616 69.154133 153.582934 4.317867 0.221867 8.6016 0.546133 12.834134 0.904533 16.964267 1.416533 33.7408 3.549867 50.466133 6.058667 16.725333 2.474667 33.365333 5.5808 49.937067 9.045333 33.109333 6.9632 65.928533 15.872 98.030933 27.1872 8.021333 2.850133 16.008533 5.802667 23.927467 8.96a699.733333 699.733333 0 0 1 23.6032 9.9328c7.799467 3.4816 15.5648 7.0656 23.227733 10.888533 7.68 3.84 15.240533 7.850667 22.7328 11.997867a479.402667 479.402667 0 0 1 43.7248 27.392 424.516267 424.516267 0 0 1 40.5504 32.3072c25.719467 23.227733 48.469333 50.2272 66.013867 80.520533l11.349333 19.5584-22.1184 2.474667a1881.719467 1881.719467 0 0 0-209.117867 35.771733c-38.058667 8.6528-75.912533 18.773333-113.476266 29.917867l-22.4768 6.826667 1.450666 8.6528c4.881067 31.8976 12.680533 111.616-5.085866 230.5024l-1.501867 9.540266c-2.798933 15.104-26.9312 137.403733-90.624 242.090667-0.3584 0.682667-1.723733 0.9728-1.723733 0.9728-2.798933 0.1536-5.666133 0.238933-8.618667 0.290133l-4.471467 0.034134c-86.050133 0.221867-229.819733-33.006933-229.819733-33.006934-123.613867-33.28-168.448-91.4432-176.981333-104.157866l-1.5872-2.491734c-49.288533-72.686933 38.638933-142.250667 55.5008-154.624l4.078933-3.345066a1.774933 1.774933 0 0 1 0.699733-1.877334l8.482134-5.614933c39.867733-33.143467 77.3632-69.034667 110.336-108.612267a587.997867 587.997867 0 0 0 26.453333-34.304 384.341333 384.341333 0 0 0 23.057067-36.266666c1.706667-3.072 3.328-6.1952 4.864-9.352534l1.160533-2.5088 3.072-7.492266 1.911467-4.983467 1.860266-5.034667a328.465067 328.465067 0 0 0 14.2336-50.858666c1.3312-6.826667 2.3552-13.704533 3.106134-20.616534a237.841067 237.841067 0 0 0 1.160533-41.1136 228.010667 228.010667 0 0 0-28.398933-96.733866 266.171733 266.171733 0 0 0-22.493867-34.082134 274.551467 274.551467 0 0 0-27.426133-30.3104 192.955733 192.955733 0 0 0-7.458134-6.7072l-4.590933-3.754666-3.618133-3.447467-4.096-4.0448-3.8912-4.266667c-2.6112-2.850133-5.000533-5.973333-7.406934-9.079466a91.374933 91.374933 0 0 1-11.946666-21.162667 48.093867 48.093867 0 0 1-2.5088-9.130667l-0.238934-0.136533a11.7248 11.7248 0 0 1-0.324266-5.8368l0.341333-1.399467a16.810667 16.810667 0 0 1 0.682667-3.140266 10.1888 10.1888 0 0 1 1.672533-3.106134 6.007467 6.007467 0 0 1 1.8432-1.570133c31.505067-41.762133 210.4832-101.239467 210.4832-101.239467z m96.4096 873.984l2.013867-6.075733-9.284267 3.584c-38.741333 14.677333-135.7312 49.749333-198.365867 57.378133l21.162667 4.232534c73.693867 14.4384 141.038933 24.4224 141.038933 24.4224 4.7104 0.9216 8.328533 1.757867 11.093334 2.491733l5.666133-13.6192c6.314667-15.530667 15.957333-40.413867 26.6752-72.430933z m-142.609067-48.708266l-9.216-3.908267-1.024 1.6384c-35.0208 56.439467-63.351467 87.739733-76.049066 100.488533 4.334933 1.0752 8.669867 2.133333 13.021866 3.140267l94.6176-27.989333c50.449067-15.035733 103.901867-31.197867 124.091734-38.109867l1.792-0.597333 1.6896-5.256534-5.12-0.085333c-57.002667-1.194667-105.0624-13.499733-143.803734-29.320533z m-35.7376 1.6384l5.358934-9.1648-14.574934 5.000533c-42.666667 14.404267-100.283733 32.1024-166.485333 47.906133l4.215467 2.730667c5.8368 3.703467 9.472 5.700267 9.472 5.700267 19.3024 12.1856 57.002667 28.9792 100.010666 41.233066l0.699734-0.853333c19.217067-23.483733 42.018133-59.733333 61.303466-92.552533z m-87.893333-84.599467l-2.133333-2.184533-0.494934 0.6144a403.797333 403.797333 0 0 1-13.687466 15.035733l-7.2192 7.338667S169.540267 848.9984 147.114667 879.445333l6.826666 4.881067 69.205334-23.210667a10126.677333 10126.677333 0 0 0 62.464-21.384533l45.533866-15.940267-2.338133-1.297066c-49.015467-27.4944-74.359467-56.098133-74.359467-56.098134a145.6128 145.6128 0 0 1-6.741333-6.365866z m-29.166933 4.0448l11.008-16.5888-2.850134 0.768c-44.202667 11.690667-96.426667 24.576-144.3328 33.928533l-2.525866 0.494934 0.136533 2.321066c2.679467 35.259733 31.6928 66.082133 56.7296 86.3744l3.447467 2.7648 14.882133-19.9168a2476.305067 2476.305067 0 0 0 63.505067-90.146133z m334.404266-12.578133l2.8672-13.2608-7.441066 4.471466c-24.814933 14.728533-69.256533 38.997333-129.2288 63.2832l-27.682134 10.990934c-3.072 1.194667-6.690133 2.594133-10.786133 4.130133l-8.6016 3.2256c60.347733 29.2352 124.296533 42.222933 148.718933 46.421333a1395.729067 1395.729067 0 0 0 32.1536-119.261866z m-136.738133-62.651734l-5.0688 2.218667a553.489067 553.489067 0 0 1-68.386133 24.712533l-12.5952 3.413334c-3.3792 1.024-16.042667 4.795733-34.9184 10.1888l-32.802134 9.216a195.549867 195.549867 0 0 0 34.679467 36.061866c16.5376 15.428267 35.720533 28.603733 55.8592 39.765334l16.213333-29.320534c5.393067-9.9328 8.533333-15.957333 8.533334-15.957333l3.549866-6.1952a547.106133 547.106133 0 0 0 31.931734-66.389333l3.003733-7.714134z m28.5696-4.027733l-6.161067-3.857067-3.362133 10.359467c-6.144 18.517333-10.8544 30.344533-10.8544 30.344533a1150.088533 1150.088533 0 0 1-42.410667 83.643734l10.0864-3.84c8.021333-3.072 15.018667-5.870933 20.6848-8.2944l6.144-2.696534s71.7312-23.364267 134.536534-58.9824l4.283733-2.4576 0.426667-2.0992-4.6592-0.938666c-45.1584-9.335467-80.759467-24.2176-108.714667-41.181867z m-236.7488-42.3424l-17.066667 8.994133a1565.4912 1565.4912 0 0 0-36.130133 19.950934c-34.269867 25.344-57.275733 60.5696-57.275733 60.5696-11.349333 14.677333-16.64 29.149867-17.6128 43.025066l82.688-23.688533 63.880533-18.8416c-19.575467-33.655467-20.411733-68.949333-18.4832-90.0096z m362.9568-37.376l0.1024-6.024533-12.561067 8.925866a939.6736 939.6736 0 0 1-88.746666 54.493867l-13.090134 6.912c34.730667 20.718933 71.424 36.5568 94.890667 45.789867l8.277333 3.191466 2.7648-14.848c1.058133-6.6048 7.304533-47.223467 8.362667-98.440533z m-254.3616-15.121067l-17.339733 7.850667c-20.650667 9.472-41.147733 19.285333-61.474134 29.457067-10.478933 34.423467-2.2528 65.4848 11.025067 90.112l3.106133-4.932267c26.350933-42.376533 50.688-86.1696 64.682667-122.487467z m32.512-14.148266l-4.488533 1.877333-2.884267 8.840533c-8.5504 25.207467-28.859733 77.550933-65.041067 130.645334l25.156267-7.850667c35.7376-11.332267 67.498667-22.033067 87.893333-30.208l18.688-7.509333 10.734934-4.437334C373.384533 631.466667 355.106133 592.042667 349.1328 575.829333z m2.7648-81.8176l-17.237333 10.888533c-16.349867 10.427733-32.546133 21.1456-48.759467 31.965867-1.314133 1.757867-2.6624 3.498667-3.9936 5.239466-9.045333 11.639467-18.619733 22.8352-28.552533 33.672534a725.4528 725.4528 0 0 1-63.300267 60.945066 884.906667 884.906667 0 0 1-34.935467 28.330667l24.149334-16.264533L205.346133 631.466667l4.8128-4.061867 0.938667-4.164267 5.376-1.194666 9.301333-7.867734a2684.245333 2684.245333 0 0 0 26.914134-23.108266 1294.421333 1294.421333 0 0 0 52.0192-47.6672 915.285333 915.285333 0 0 0 47.189333-49.408z m115.5072 36.266666l-5.5296 1.979734c4.386133 37.137067-5.205333 85.026133-15.7696 123.357866 39.202133-17.3568 90.760533-42.3936 119.739733-65.536l2.935467-2.389333-7.492267-3.7888c-18.500267-9.591467-43.776-24.064-64.0512-35.959467l-29.832533-17.664z m-24.081067 11.3664l-0.170666-2.645333-15.069867 5.5296c-21.230933 7.918933-42.359467 16.145067-63.351467 24.763733 4.9152 30.651733 31.368533 58.504533 64 81.885867l1.143467-4.130133c13.8752-50.5344 14.353067-87.825067 13.448533-105.403734z m-49.664-64.836266l-1.9456 2.338133c-7.765333 9.1648-15.530667 18.0736-23.722666 26.914133a610.850133 610.850133 0 0 1-51.797334 49.937067 655.684267 655.684267 0 0 1-42.990933 33.826133 663.210667 663.210667 0 0 1 36.522667-19.319466 2176.853333 2176.853333 0 0 1 88.797866-36.096l14.592-5.461334 4.266667-3.959466-2.338133-5.205334a699.272533 699.272533 0 0 0-8.8064-19.2 316.654933 316.654933 0 0 0-12.5952-23.773866z m172.305067 35.3792l-2.321067-14.216534-1.467733 0.477867c-15.0528 4.778667-30.037333 9.728-44.987733 14.7456l-18.466134 6.229333-18.432 6.3488 16.452267 10.120534c23.483733 14.353067 55.9104 33.928533 74.359467 45.021866L571.050667 580.266667a533.282133 533.282133 0 0 0-5.12-68.096zM347.306667 419.771733l-1.348267 4.608c-2.167467 7.304533-4.778667 14.4384-7.560533 21.469867-2.7648 7.048533-5.870933 13.9264-9.216 20.650667a338.602667 338.602667 0 0 1-5.12 10.001066c-1.809067 3.293867-3.652267 6.536533-5.5296 9.762134l-2.884267 4.829866-1.4336 2.338134-1.245867 2.389333c-1.792 3.413333-3.6864 6.638933-5.632 9.8304a342.016 342.016 0 0 1-10.530133 16.162133l1.672533-1.570133a813.909333 813.909333 0 0 1 29.013334-25.1392 911.172267 911.172267 0 0 1 48.725333-37.4784l3.1744-2.2528a255.8976 255.8976 0 0 0-17.4592-20.7872 379.682133 379.682133 0 0 0-14.626133-14.813867z m225.143466-29.371733l-8.840533-6.024533-0.580267 0.904533c-6.365867 9.284267-13.1072 18.261333-20.1216 26.9312-5.802667 7.236267-11.776 14.336-17.902933 21.2992l-9.096533 10.205867-9.0112 10.205866c-12.066133 13.602133-24.200533 27.5456-37.546667 40.567467-8.328533 8.157867-17.0496 15.906133-26.146133 23.1936a6682.794667 6682.794667 0 0 1 67.8912-24.490667 1896.260267 1896.260267 0 0 1 136.106666-43.963733l4.437334 3.84a537.617067 537.617067 0 0 0-19.421867-16.4352l-19.831467-16.008533a646.7584 646.7584 0 0 0-39.936-30.225067z m-45.568 8.994133l4.488534-5.802666 0.9728-0.4608a1917.8496 1917.8496 0 0 0-114.397867 61.013333l-4.437333 2.6112c6.7072 11.656533 11.264 24.456533 13.431466 37.444267 1.143467 6.690133 1.621333 13.448533 1.501867 20.1728a504.866133 504.866133 0 0 0 29.064533-31.0272c11.707733-13.602133 22.869333-27.869867 34.440534-42.103467l4.369066-5.3248 8.874667-10.581333 4.437333-5.1712c5.870933-6.8608 11.6736-13.738667 17.237334-20.770134z m-123.255466-24.746666l-47.104 34.269866 1.8944 0.648534c5.888 2.1504 11.554133 4.864 16.913066 8.0896 8.704 5.188267 16.6912 11.741867 23.6544 19.285333l-1.2288 1.655467c6.929067-9.250133 13.431467-18.7392 19.285334-28.552534 5.870933-9.7792 11.127467-19.8656 15.530666-30.3104 4.4032-10.4448 8.123733-21.162667 10.922667-32.187733l0.4608-1.962667c-13.482667 9.642667-26.9312 19.319467-40.328533 29.064534z m385.536-78.7456l-2.116267 6.280533c-2.781867 7.7824-5.956267 15.4624-9.454933 22.9888a288.290133 288.290133 0 0 1-35.140267 56.337067c-13.704533 17.408-28.962133 33.365333-44.817067 48.418133l-4.608 4.130133 2.0992 2.048 21.026134-5.410133c61.781333-15.650133 124.347733-28.330667 187.460266-37.853867l0.290134-0.068266-1.8944-2.594134a308.7872 308.7872 0 0 0-47.684267-49.749333c-20.0704-16.896-42.0864-31.556267-65.160533-44.544z m-7.338667-4.027734l-1.024-0.580266-3.1744 1.109333c-12.014933 4.181333-24.0128 8.362667-35.925333 12.680533a2238.8736 2238.8736 0 0 0-71.031467 26.811734 1950.890667 1950.890667 0 0 0-73.216 30.805333l6.007467 3.566933c11.383467 6.8608 22.562133 14.097067 33.501866 21.7088 14.421333 10.069333 28.347733 20.9408 41.540267 32.631467l4.983467-5.256533a870.5024 870.5024 0 0 0 43.844266-46.336 460.458667 460.458667 0 0 0 38.3488-50.449067c5.6832-8.6528 11.008-17.578667 16.128-26.692267zM465.783467 331.605333l-0.290134 2.338134-0.989866 6.024533a294.536533 294.536533 0 0 1-2.440534 12.066133 228.983467 228.983467 0 0 1-11.093333 35.328c-4.266667 10.530133-9.301333 20.770133-14.916267 30.600534a1021.098667 1021.098667 0 0 1 85.367467-47.069867l11.4688-5.5296-3.003733-1.7408a695.210667 695.210667 0 0 0-64.1024-32.017067z m461.5168 57.821867l-23.3984 3.345067 3.1744 4.334933 4.846933 7.099733 4.608 7.253334 10.769067-22.033067z m-579.754667-98.9184l-1.024-3.5328c4.608 14.916267 7.594667 30.344533 9.130667 45.858133 2.048 21.981867 0.836267 44.100267-3.2256 65.450667l3.413333-3.754667c11.3664-12.117333 23.261867-23.722667 35.498667-34.9184a773.290667 773.290667 0 0 1 46.8992-39.389866l0.3584 0.136533a791.261867 791.261867 0 0 0-91.0336-29.8496z m256.7168-57.070933l-20.292267 14.216533-20.189866 14.045867c-23.722667 16.418133-47.342933 32.785067-70.877867 49.271466a711.509333 711.509333 0 0 1 52.462933 23.466667c6.365867 3.157333 12.6976 6.4 18.978134 9.728 6.434133-11.554133 12.151467-23.5008 16.981333-35.84 3.293867-8.226133 6.2464-16.605867 8.840533-25.088l1.877334-6.382933 2.4576-8.874667 1.245866-3.959467 1.911467-6.382933c2.321067-7.970133 4.5568-16.0256 6.6048-24.200533z m14.3872-4.7616l-3.584-0.9728 0.341333 5.051733a165.154133 165.154133 0 0 1-1.143466 28.279467l-0.443734 3.515733-1.365333 8.328533-0.512 2.082134a343.159467 343.159467 0 0 1-12.1856 40.465066c-3.242667 8.5504-6.826667 16.9984-10.752 25.258667a992.768 992.768 0 0 1 75.127467-27.136 941.533867 941.533867 0 0 1 74.154666-20.155733 867.498667 867.498667 0 0 1 33.399467-6.894934l2.679467 1.365334a664.593067 664.593067 0 0 0-66.116267-29.764267 767.8976 767.8976 0 0 0-22.749867-8.465067 941.175467 941.175467 0 0 0-66.850133-20.957866z m-164.3008-30.429867l0.375467 1.194667a313.873067 313.873067 0 0 1 13.687466 98.474666l0.648534-0.477866a839.0656 839.0656 0 0 1 84.5312-52.343467 752.981333 752.981333 0 0 1 43.9808-21.9136l-2.747734-0.7168-2.7648-0.682667a977.544533 977.544533 0 0 0-95.965866-18.602666 405.674667 405.674667 0 0 0-11.9296-1.4848l-12.458667-1.365334-17.3568-2.082133z m-5.0176-0.631467l-4.488533-0.5632 2.4576-2.7136a398.165333 398.165333 0 0 1-15.530667 16.605867 546.696533 546.696533 0 0 1-33.024 30.549333 563.029333 563.029333 0 0 1-35.259733 27.921067l-3.1232 2.218667 0.6144 0.119466c29.2864 5.973333 58.3168 13.533867 86.903466 22.784l4.215467 1.4336c1.5872-17.066667 2.013867-34.304 1.365333-51.592533a474.606933 474.606933 0 0 0-4.130133-46.762667z m-134.434133-22.9376l2.389333 3.959467a251.426133 251.426133 0 0 1 17.749333 38.109867l3.515734 9.984a140.407467 140.407467 0 0 1 7.048533 37.290666l1.314133-1.621333 4.9664-5.802667a337.186133 337.186133 0 0 1 32.546134-31.812266 336.896 336.896 0 0 1 36.420266-27.306667l4.7616-2.986667-11.912533-1.672533-16.554667-2.474667a1152 1152 0 0 1-82.244266-15.6672z m-61.3888-17.629866l3.6352 2.389333 2.696533 2.030933 2.389333 1.877334c3.072 2.474667 6.075733 5.0176 9.0112 7.645866a263.799467 263.799467 0 0 1 31.761067 33.9456c5.8368 7.338667 11.264 15.018667 16.247467 23.005867l-5.649067-26.112-4.027733-19.2a677.9392 677.9392 0 0 1-1.911467-9.728l-9.130667-2.218667a653.687467 653.687467 0 0 1-24.302933-6.8096 382.088533 382.088533 0 0 1-20.718933-6.826666z m190.498133-17.339734l-3.037867-7.099733-12.885333 9.898667-29.422933 22.9888 1.399466 0.119466c16.469333 1.365333 32.938667 2.440533 49.442134 3.515734l11.895466 0.7168-1.655466-2.167467c-5.8368-7.936-11.076267-17.544533-15.735467-27.972267z m-164.829867-47.018666l-2.389333-1.6384-2.218667 1.348266 66.645334 67.652267 19.4048 2.048 4.130133 0.4096 1.3312-0.426667c7.714133-2.56 27.3408-12.8 45.1072-22.4256l26.760533-14.7456-1.6384-4.437333-13.738666-1.1776c-38.109867-3.413333-119.927467-12.202667-143.394134-26.606933z m-9.898666 3.072c-34.184533 22.237867-37.614933 37.034667-36.130134 44.424533l-3.362133-1.109333c7.662933 2.730667 15.530667 4.898133 23.5008 6.8096 15.957333 3.754667 32.136533 6.7072 48.4352 9.045333l13.3632 1.8432-45.824-61.013333z m144.110933-68.437334l-3.6864 1.2288c-40.789333 13.824-93.764267 41.1648-112.896 51.3024l-8.362667 4.488534 57.838934 11.1104c30.5152 5.751467 64.256 11.895467 82.6368 14.5408l4.010666 0.5632-0.6144-1.8432c-13.073067-40.635733-18.944-81.373867-18.944-81.373867z" fill="#13227a" p-id="17347"></path></svg>