<?xml version="1.0" standalone="no"?><!DOCTYPE svg PUBLIC "-//W3C//DTD SVG 1.1//EN" "http://www.w3.org/Graphics/SVG/1.1/DTD/svg11.dtd"><svg t="1700227353388" class="icon" viewBox="0 0 1024 1024" version="1.1" xmlns="http://www.w3.org/2000/svg" p-id="1526" xmlns:xlink="http://www.w3.org/1999/xlink" width="200" height="200"><path d="M85.333333 128v768h853.333334V128H85.333333z m810.666667 725.333333H128V170.666667h768v682.666666z" fill="#8a8a8a" p-id="1527"></path><path d="M539.733333 546.133333c-4.266667-6.4-8.533333-10.666667-12.8-17.066666-4.266667-6.4-8.533333-10.666667-12.8-17.066667-4.266667 6.4-8.533333 12.8-12.8 17.066667-4.266667 6.4-8.533333 12.8-12.8 17.066666-59.733333 72.533333-83.2 106.666667-83.2 157.866667 0 59.733333 46.933333 106.666667 106.666667 106.666667s106.666667-46.933333 106.666667-106.666667c0-51.2-23.466667-85.333333-78.933334-157.866667zM512 768c-36.266667 0-64-27.733333-64-64 0-19.2 4.266667-36.266667 19.2-59.733333 10.666667-17.066667 25.6-36.266667 44.8-61.866667 19.2 25.6 34.133333 44.8 44.8 61.866667 14.933333 23.466667 19.2 40.533333 19.2 59.733333 0 36.266667-27.733333 64-64 64zM556.8 484.266667l-128-221.866667 36.266667-21.333333 128 221.866666-36.266667 21.333334z" fill="#8a8a8a" p-id="1528"></path><path d="M467.2 484.266667l128-221.866667-36.266667-21.333333-128 221.866666 36.266667 21.333334z" fill="#8a8a8a" p-id="1529"></path><path d="M640 384H384v-42.666667h256v42.666667z" fill="#8a8a8a" p-id="1530"></path></svg>